<svg xmlns="http://www.w3.org/2000/svg" version="1.1" xmlns:xlink="http://www.w3.org/1999/xlink" xmlns:svgjs="http://svgjs.dev/svgjs" width="1500" height="571" viewBox="0 0 1500 571"><g transform="matrix(1,0,0,1,-0.9090909090909918,-0.5886481056080584)"><svg viewBox="0 0 396 151" data-background-color="#f9f6ed" preserveAspectRatio="xMidYMid meet" height="571" width="1500" xmlns="http://www.w3.org/2000/svg" xmlns:xlink="http://www.w3.org/1999/xlink"><g id="tight-bounds" transform="matrix(1,0,0,1,0.2400000000000091,0.15566701216604883)"><svg viewBox="0 0 395.52 150.6886659756679" height="150.6886659756679" width="395.52"><g><svg viewBox="0 0 648.8380752921894 247.2" height="150.6886659756679" width="395.52"><g transform="matrix(1,0,0,1,283.8936450745198,0)"><svg viewBox="0 0 364.9444302176696 247.2" height="247.2" width="364.9444302176696"><g id="textblocktransform"><svg viewBox="0 0 364.9444302176696 247.2" height="247.2" width="364.9444302176696" id="textblock"><g><svg viewBox="0 0 364.9444302176696 247.2" height="247.2" width="364.9444302176696"><g transform="matrix(1,0,0,1,0,0)"><svg width="364.9444302176696" viewBox="1.9 -38.6 57.65 39.050000000000004" height="247.2" data-palette-color="#21272d"><path d="M9.8-26.55L9.8-2.55 9.35-3.1 13.7-2.15 13.7 0 1.9 0 1.9-2.15 6.25-3.1 5.8-2.55 5.8-23.65 6.2-23.2 1.9-24.1 1.9-26.25 9.8-26.55ZM7.5-31.95L7.5-31.95Q6.35-31.95 5.6-32.7 4.85-33.45 4.85-34.75L4.85-34.75Q4.85-36.1 5.63-36.83 6.4-37.55 7.55-37.55L7.55-37.55Q8.75-37.55 9.5-36.85 10.25-36.15 10.25-34.75L10.25-34.75Q10.25-33.4 9.45-32.68 8.65-31.95 7.5-31.95ZM25.65 0.45L25.65 0.45Q23.05 0.45 21.55-1.18 20.05-2.8 20.05-6.1L20.05-6.1 20.05-24.25 20.7-23.6 15.55-23.6 15.55-25.8 20.75-26.55 20.05-25.75 20.05-32.35 24.05-33 24.05-25.75 23.5-26.4 31.35-26.4 31.2-23.6 23.5-23.6 24.05-24.25 24.05-6.65Q24.05-4.55 24.87-3.6 25.7-2.65 27.2-2.65L27.2-2.65Q28.1-2.65 29.15-2.95 30.2-3.25 31.4-3.8L31.4-3.8 32.25-1.5Q28.7 0.45 25.65 0.45ZM45.5 0.45L45.5 0.45Q43.7 0.45 41.67 0.2 39.65-0.05 37.4-0.55L37.4-0.55 37.4-36.25 38.2-35.1 33.5-36.1 33.5-38.25 41.4-38.6 41.4-22.15 40.85-22.75Q42.95-24.75 45.2-25.8 47.45-26.85 49.7-26.85L49.7-26.85Q52.5-26.85 54.72-25.3 56.95-23.75 58.25-20.8 59.55-17.85 59.55-13.55L59.55-13.55Q59.55-10.3 58.72-7.7 57.9-5.1 56.2-3.3 54.5-1.5 51.85-0.53 49.2 0.45 45.5 0.45ZM46.25-2.5L46.25-2.5Q50.7-2.5 53.05-5.25 55.4-8 55.4-13.25L55.4-13.25Q55.4-16.55 54.47-18.9 53.55-21.25 51.95-22.53 50.35-23.8 48.3-23.8L48.3-23.8Q46.55-23.8 44.67-22.88 42.8-21.95 40.9-20.05L40.9-20.05 41.4-21.5 41.4-2.2 40.85-3.3Q43.9-2.5 46.25-2.5Z" opacity="1" transform="matrix(1,0,0,1,0,0)" fill="#21272d" class="wordmark-text-0" data-fill-palette-color="primary" id="text-0"></path></svg></g></svg></g></svg></g></svg></g><g transform="matrix(1,0,0,1,0,32.90453134936571)"><svg viewBox="0 0 225.5356578745198 181.39093730126856" height="181.39093730126856" width="225.5356578745198"><g><svg xmlns="http://www.w3.org/2000/svg" xmlns:xlink="http://www.w3.org/1999/xlink" version="1.1" x="0" y="0" viewBox="0 9.786 100.00034525290005 80.42699999999999" enable-background="new 0 0 100 100" xml:space="preserve" id="icon-0" width="225.5356578745198" height="181.39093730126856" class="icon-icon-0" data-fill-palette-color="accent"><path d="M49.942 52.994L90.595 51.529C88.068 47.352 87.436 43.698 82.606 43.068 75.377 42.128 68.148 41.185 60.918 40.242L18.843 34.762C20.101 36.792 39.724 53.361 49.942 52.994" fill="#ea5141" data-fill-palette-color="accent"></path><path d="M0 9.786C4.391 17.043 26.615 32.858 32.953 33.672 50.283 35.903 67.61 38.132 84.939 40.36 81.546 34.753 80.759 31.01 74.627 29.401L47.91 22.378C31.94 18.182 15.97 13.984 0 9.786" fill="#ea5141" data-fill-palette-color="accent"></path><path d="M63.108 66.207L94.349 59.547C92.321 56.201 92.315 54.188 88.522 54.358 82.364 54.631 76.208 54.907 70.051 55.18 58.708 55.686 47.365 56.194 36.023 56.698 37.298 58.064 54.94 67.947 63.108 66.207" fill="#ea5141" data-fill-palette-color="accent"></path><path d="M87.682 90.213C93.407 86.494 94.944 82.492 98.201 76.406 101.852 69.582 99.458 68.562 95.38 61.81 94.963 61.122 89.538 62.042 88.927 62.714 88.182 63.532 88.679 68.169 88.633 69.21z" fill="#ea5141" data-fill-palette-color="accent"></path><path d="M86.35 63.447C82.555 64.256 77.746 63.638 76.778 67.676L72.658 84.887C81.904 82.678 86.028 71.582 86.35 63.447" fill="#ea5141" data-fill-palette-color="accent"></path><path d="M74.666 66.121C65.518 68.074 65.71 70.732 61.787 79.301 68.007 78.711 73.811 71.941 74.666 66.121" fill="#ea5141" data-fill-palette-color="accent"></path></svg></g></svg></g></svg></g><defs></defs></svg><rect width="395.52" height="150.6886659756679" fill="none" stroke="none" visibility="hidden"></rect></g></svg></g></svg>